<mxfile modified="2023-11-23T00:14:40.801Z" host="app.diagrams.net" agent="Mozilla/5.0 (Windows NT 10.0; Win64; x64) AppleWebKit/537.36 (KHTML, like Gecko) Chrome/119.0.0.0 Safari/537.36 Edg/119.0.0.0" etag="9QYvdzyddBEXAsqWzIGH" version="22.1.3" type="device">
  <diagram id="umd7pi5sMjhjIArkh8CE" name="Page-1">
    <mxGraphModel dx="1426" dy="751" grid="1" gridSize="10" guides="1" tooltips="1" connect="1" arrows="1" fold="1" page="1" pageScale="1" pageWidth="1100" pageHeight="850" math="0" shadow="0">
      <root>
        <mxCell id="0" />
        <mxCell id="1" parent="0" />
        <mxCell id="7FUQ8ZFE2Msjoggg_Z5E-76" value="" style="edgeStyle=orthogonalEdgeStyle;rounded=0;orthogonalLoop=1;jettySize=auto;html=1;startArrow=none;startFill=0;strokeColor=#545B64;fontSize=8;" parent="1" source="7FUQ8ZFE2Msjoggg_Z5E-75" target="7FUQ8ZFE2Msjoggg_Z5E-64" edge="1">
          <mxGeometry relative="1" as="geometry">
            <mxPoint x="931" y="1307.7931034482758" as="sourcePoint" />
            <mxPoint x="971.5" y="1193" as="targetPoint" />
            <Array as="points">
              <mxPoint x="390.5" y="1494" />
            </Array>
          </mxGeometry>
        </mxCell>
        <mxCell id="7FUQ8ZFE2Msjoggg_Z5E-52" value="" style="edgeStyle=orthogonalEdgeStyle;rounded=0;orthogonalLoop=1;jettySize=auto;html=1;startArrow=none;startFill=0;strokeColor=#545B64;fontSize=8;" parent="1" source="7FUQ8ZFE2Msjoggg_Z5E-44" target="7FUQ8ZFE2Msjoggg_Z5E-14" edge="1">
          <mxGeometry relative="1" as="geometry">
            <mxPoint x="635.5" y="1265.9999999999998" as="targetPoint" />
          </mxGeometry>
        </mxCell>
        <mxCell id="7FUQ8ZFE2Msjoggg_Z5E-15" value="" style="edgeStyle=orthogonalEdgeStyle;rounded=0;orthogonalLoop=1;jettySize=auto;html=1;startArrow=none;startFill=0;strokeColor=#545B64;fontSize=8;" parent="1" source="No7pV-notClb6I_pl6TP-4" target="7FUQ8ZFE2Msjoggg_Z5E-14" edge="1">
          <mxGeometry relative="1" as="geometry" />
        </mxCell>
        <mxCell id="SrODZw-WOt68CoaygPpk-14" value="" style="edgeStyle=orthogonalEdgeStyle;rounded=0;orthogonalLoop=1;jettySize=auto;html=1;startArrow=none;startFill=0;strokeColor=#545B64;fontSize=8;entryX=0.5;entryY=0;entryDx=0;entryDy=0;" parent="1" source="SrODZw-WOt68CoaygPpk-5" target="SrODZw-WOt68CoaygPpk-13" edge="1">
          <mxGeometry relative="1" as="geometry">
            <mxPoint x="761" y="642" as="sourcePoint" />
            <mxPoint x="761" y="1051" as="targetPoint" />
          </mxGeometry>
        </mxCell>
        <mxCell id="No7pV-notClb6I_pl6TP-7" value="" style="edgeStyle=orthogonalEdgeStyle;rounded=0;orthogonalLoop=1;jettySize=auto;html=1;entryX=0.5;entryY=0;entryDx=0;entryDy=0;exitX=0.5;exitY=1;exitDx=0;exitDy=0;" parent="1" source="7FUQ8ZFE2Msjoggg_Z5E-9" target="No7pV-notClb6I_pl6TP-5" edge="1">
          <mxGeometry relative="1" as="geometry">
            <mxPoint x="835.5" y="473" as="targetPoint" />
            <mxPoint x="731.5" y="473" as="sourcePoint" />
          </mxGeometry>
        </mxCell>
        <mxCell id="7FUQ8ZFE2Msjoggg_Z5E-8" value="" style="edgeStyle=orthogonalEdgeStyle;rounded=0;orthogonalLoop=1;jettySize=auto;html=1;" parent="1" source="7FUQ8ZFE2Msjoggg_Z5E-5" target="7FUQ8ZFE2Msjoggg_Z5E-7" edge="1">
          <mxGeometry relative="1" as="geometry">
            <mxPoint x="593.5" y="203.5" as="sourcePoint" />
            <mxPoint x="653.5" y="203.5" as="targetPoint" />
            <Array as="points">
              <mxPoint x="632.5" y="294" />
              <mxPoint x="799.5" y="294" />
            </Array>
          </mxGeometry>
        </mxCell>
        <mxCell id="RJfPdM89LTjFBabGm1Zc-3" value="" style="rounded=0;whiteSpace=wrap;html=1;" vertex="1" parent="1">
          <mxGeometry x="8" y="20" width="260" height="60" as="geometry" />
        </mxCell>
        <mxCell id="No7pV-notClb6I_pl6TP-1" value="" style="ellipse;html=1;shape=startState;fillColor=#000000;strokeColor=#ff0000;" parent="1" vertex="1">
          <mxGeometry x="7" y="179" width="30" height="30" as="geometry" />
        </mxCell>
        <mxCell id="No7pV-notClb6I_pl6TP-25" value="" style="edgeStyle=orthogonalEdgeStyle;rounded=0;orthogonalLoop=1;jettySize=auto;html=1;" parent="1" source="_6u5Ek_jN7iXaBwEbl3a-3" target="No7pV-notClb6I_pl6TP-4" edge="1">
          <mxGeometry relative="1" as="geometry">
            <mxPoint x="1345.5" y="902" as="targetPoint" />
          </mxGeometry>
        </mxCell>
        <mxCell id="No7pV-notClb6I_pl6TP-4" value="job-approved&lt;br&gt;" style="outlineConnect=0;fontColor=#232F3E;gradientColor=none;strokeColor=#232F3E;fillColor=#ffffff;dashed=0;verticalLabelPosition=bottom;verticalAlign=top;align=center;html=1;fontSize=12;fontStyle=0;aspect=fixed;shape=mxgraph.aws4.resourceIcon;resIcon=mxgraph.aws4.message;labelBackgroundColor=default;" parent="1" vertex="1">
          <mxGeometry x="605" y="572" width="60" height="60" as="geometry" />
        </mxCell>
        <mxCell id="No7pV-notClb6I_pl6TP-9" value="" style="edgeStyle=orthogonalEdgeStyle;rounded=0;orthogonalLoop=1;jettySize=auto;html=1;exitX=0.5;exitY=1;exitDx=0;exitDy=0;" parent="1" source="No7pV-notClb6I_pl6TP-5" target="No7pV-notClb6I_pl6TP-4" edge="1">
          <mxGeometry relative="1" as="geometry">
            <mxPoint x="943.5" y="527" as="targetPoint" />
            <mxPoint x="895.5" y="502" as="sourcePoint" />
            <Array as="points">
              <mxPoint x="635.5" y="582" />
              <mxPoint x="635.5" y="582" />
            </Array>
          </mxGeometry>
        </mxCell>
        <mxCell id="No7pV-notClb6I_pl6TP-10" value="No" style="text;html=1;resizable=0;points=[];align=center;verticalAlign=middle;labelBackgroundColor=#ffffff;" parent="No7pV-notClb6I_pl6TP-9" vertex="1" connectable="0">
          <mxGeometry x="0.2" y="2" relative="1" as="geometry">
            <mxPoint x="8" y="-20" as="offset" />
          </mxGeometry>
        </mxCell>
        <mxCell id="No7pV-notClb6I_pl6TP-12" value="" style="edgeStyle=orthogonalEdgeStyle;rounded=0;orthogonalLoop=1;jettySize=auto;html=1;exitX=0;exitY=0.5;exitDx=0;exitDy=0;" parent="1" source="No7pV-notClb6I_pl6TP-5" edge="1">
          <mxGeometry relative="1" as="geometry">
            <mxPoint x="545.5" y="477" as="targetPoint" />
          </mxGeometry>
        </mxCell>
        <mxCell id="No7pV-notClb6I_pl6TP-13" value="Yes&lt;br&gt;" style="text;html=1;resizable=0;points=[];align=center;verticalAlign=middle;labelBackgroundColor=#ffffff;" parent="No7pV-notClb6I_pl6TP-12" vertex="1" connectable="0">
          <mxGeometry x="-0.2564" y="3" relative="1" as="geometry">
            <mxPoint x="9" y="12" as="offset" />
          </mxGeometry>
        </mxCell>
        <mxCell id="No7pV-notClb6I_pl6TP-5" value="Threshold reached?" style="rhombus;whiteSpace=wrap;html=1;" parent="1" vertex="1">
          <mxGeometry x="595.5" y="437" width="80" height="80" as="geometry" />
        </mxCell>
        <mxCell id="No7pV-notClb6I_pl6TP-16" value="" style="edgeStyle=orthogonalEdgeStyle;rounded=0;orthogonalLoop=1;jettySize=auto;html=1;exitX=0.5;exitY=1;exitDx=0;exitDy=0;" parent="1" source="No7pV-notClb6I_pl6TP-17" target="No7pV-notClb6I_pl6TP-15" edge="1">
          <mxGeometry relative="1" as="geometry">
            <Array as="points">
              <mxPoint x="273.5" y="554" />
              <mxPoint x="273.5" y="554" />
            </Array>
          </mxGeometry>
        </mxCell>
        <mxCell id="SrODZw-WOt68CoaygPpk-41" value="Yes" style="text;html=1;resizable=0;points=[];align=center;verticalAlign=middle;labelBackgroundColor=#ffffff;" parent="No7pV-notClb6I_pl6TP-16" vertex="1" connectable="0">
          <mxGeometry x="-0.6663" relative="1" as="geometry">
            <mxPoint x="11.5" y="6" as="offset" />
          </mxGeometry>
        </mxCell>
        <mxCell id="No7pV-notClb6I_pl6TP-18" value="" style="edgeStyle=orthogonalEdgeStyle;rounded=0;orthogonalLoop=1;jettySize=auto;html=1;" parent="1" source="7FUQ8ZFE2Msjoggg_Z5E-12" target="SrODZw-WOt68CoaygPpk-31" edge="1">
          <mxGeometry relative="1" as="geometry">
            <mxPoint x="325.5" y="324" as="targetPoint" />
          </mxGeometry>
        </mxCell>
        <mxCell id="No7pV-notClb6I_pl6TP-14" value="ereefs-administration" style="outlineConnect=0;fontColor=#232F3E;gradientColor=none;strokeColor=#232F3E;fillColor=#ffffff;dashed=0;verticalLabelPosition=bottom;verticalAlign=top;align=center;html=1;fontSize=12;fontStyle=0;aspect=fixed;shape=mxgraph.aws4.resourceIcon;resIcon=mxgraph.aws4.message;" parent="1" vertex="1">
          <mxGeometry x="485" y="327" width="60" height="60" as="geometry" />
        </mxCell>
        <mxCell id="No7pV-notClb6I_pl6TP-20" value="" style="edgeStyle=orthogonalEdgeStyle;rounded=0;orthogonalLoop=1;jettySize=auto;html=1;exitX=0;exitY=0.5;exitDx=0;exitDy=0;" parent="1" source="No7pV-notClb6I_pl6TP-17" target="No7pV-notClb6I_pl6TP-19" edge="1">
          <mxGeometry relative="1" as="geometry">
            <Array as="points">
              <mxPoint x="225.5" y="503" />
              <mxPoint x="225.5" y="503" />
            </Array>
          </mxGeometry>
        </mxCell>
        <mxCell id="SrODZw-WOt68CoaygPpk-40" value="No" style="text;html=1;resizable=0;points=[];align=center;verticalAlign=middle;labelBackgroundColor=#ffffff;" parent="No7pV-notClb6I_pl6TP-20" vertex="1" connectable="0">
          <mxGeometry x="-0.3684" y="-1" relative="1" as="geometry">
            <mxPoint x="7.5" y="-8" as="offset" />
          </mxGeometry>
        </mxCell>
        <mxCell id="No7pV-notClb6I_pl6TP-29" value="" style="edgeStyle=orthogonalEdgeStyle;rounded=0;orthogonalLoop=1;jettySize=auto;html=1;entryX=1;entryY=0.5;entryDx=0;entryDy=0;" parent="1" source="No7pV-notClb6I_pl6TP-19" target="No7pV-notClb6I_pl6TP-24" edge="1">
          <mxGeometry relative="1" as="geometry">
            <mxPoint x="75.5" y="358" as="targetPoint" />
            <Array as="points" />
          </mxGeometry>
        </mxCell>
        <mxCell id="No7pV-notClb6I_pl6TP-19" value="job-denied-by-user" style="outlineConnect=0;fontColor=#232F3E;gradientColor=none;strokeColor=#232F3E;fillColor=#ffffff;dashed=0;verticalLabelPosition=bottom;verticalAlign=top;align=center;html=1;fontSize=12;fontStyle=0;aspect=fixed;shape=mxgraph.aws4.resourceIcon;resIcon=mxgraph.aws4.message;" parent="1" vertex="1">
          <mxGeometry x="123.5" y="473" width="60" height="60" as="geometry" />
        </mxCell>
        <mxCell id="No7pV-notClb6I_pl6TP-17" value="Admin approved Job?" style="rhombus;whiteSpace=wrap;html=1;" parent="1" vertex="1">
          <mxGeometry x="234" y="463" width="80" height="80" as="geometry" />
        </mxCell>
        <mxCell id="No7pV-notClb6I_pl6TP-24" value="" style="ellipse;html=1;shape=endState;fillColor=#000000;strokeColor=#ff0000;" parent="1" vertex="1">
          <mxGeometry x="8" y="488" width="30" height="30" as="geometry" />
        </mxCell>
        <mxCell id="qcChBqA-RkKrQfOubQv_-1" value="all-download-completed" style="outlineConnect=0;fontColor=#232F3E;gradientColor=none;strokeColor=#232F3E;fillColor=#ffffff;dashed=0;verticalLabelPosition=bottom;verticalAlign=top;align=center;html=1;fontSize=12;fontStyle=0;aspect=fixed;shape=mxgraph.aws4.resourceIcon;resIcon=mxgraph.aws4.message;" parent="1" vertex="1">
          <mxGeometry x="467.5" y="163.5" width="60" height="60" as="geometry" />
        </mxCell>
        <mxCell id="qcChBqA-RkKrQfOubQv_-2" value="" style="edgeStyle=orthogonalEdgeStyle;rounded=0;orthogonalLoop=1;jettySize=auto;html=1;exitX=0.834;exitY=0.485;exitDx=0;exitDy=0;exitPerimeter=0;" parent="1" source="No7pV-notClb6I_pl6TP-1" target="7FUQ8ZFE2Msjoggg_Z5E-1" edge="1">
          <mxGeometry relative="1" as="geometry">
            <mxPoint x="59.5" y="254" as="sourcePoint" />
            <mxPoint x="91" y="194" as="targetPoint" />
          </mxGeometry>
        </mxCell>
        <mxCell id="7FUQ8ZFE2Msjoggg_Z5E-1" value="CloudWatch&lt;br&gt;download-manager&lt;br&gt;" style="outlineConnect=0;fontColor=#232F3E;gradientColor=none;strokeColor=#ffffff;fillColor=#232F3E;dashed=0;verticalLabelPosition=middle;verticalAlign=bottom;align=center;html=1;whiteSpace=wrap;fontSize=10;fontStyle=1;spacing=3;shape=mxgraph.aws4.productIcon;prIcon=mxgraph.aws4.cloudwatch;" parent="1" vertex="1">
          <mxGeometry x="81.5" y="130" width="80" height="127" as="geometry" />
        </mxCell>
        <mxCell id="7FUQ8ZFE2Msjoggg_Z5E-2" value="&lt;div&gt;DownloadManager&lt;/div&gt;" style="points=[[0,0],[0.25,0],[0.5,0],[0.75,0],[1,0],[1,0.25],[1,0.5],[1,0.75],[1,1],[0.75,1],[0.5,1],[0.25,1],[0,1],[0,0.75],[0,0.5],[0,0.25]];outlineConnect=0;fontColor=#333333;strokeColor=#232F3E;fillColor=#FFFFFF;dashed=0;verticalLabelPosition=bottom;verticalAlign=top;align=center;html=1;fontSize=12;fontStyle=0;aspect=fixed;shape=mxgraph.aws4.resourceIcon;resIcon=mxgraph.aws4.container_1;perimeterSpacing=0;" parent="1" vertex="1">
          <mxGeometry x="340.5" y="163.5" width="61" height="60" as="geometry" />
        </mxCell>
        <mxCell id="7FUQ8ZFE2Msjoggg_Z5E-3" value="" style="edgeStyle=orthogonalEdgeStyle;rounded=0;orthogonalLoop=1;jettySize=auto;html=1;entryX=0;entryY=0.5;entryDx=0;entryDy=0;" parent="1" source="_6u5Ek_jN7iXaBwEbl3a-1" target="7FUQ8ZFE2Msjoggg_Z5E-2" edge="1">
          <mxGeometry relative="1" as="geometry">
            <mxPoint x="31" y="204" as="sourcePoint" />
            <mxPoint x="91" y="204" as="targetPoint" />
          </mxGeometry>
        </mxCell>
        <mxCell id="7FUQ8ZFE2Msjoggg_Z5E-4" value="" style="edgeStyle=orthogonalEdgeStyle;rounded=0;orthogonalLoop=1;jettySize=auto;html=1;exitX=1;exitY=0.5;exitDx=0;exitDy=0;" parent="1" source="7FUQ8ZFE2Msjoggg_Z5E-2" target="qcChBqA-RkKrQfOubQv_-1" edge="1">
          <mxGeometry relative="1" as="geometry">
            <mxPoint x="352.5" y="203.5" as="sourcePoint" />
            <mxPoint x="412.5" y="203.5" as="targetPoint" />
          </mxGeometry>
        </mxCell>
        <mxCell id="7FUQ8ZFE2Msjoggg_Z5E-5" value="&lt;div&gt;JobPlanner&lt;/div&gt;" style="points=[[0,0],[0.25,0],[0.5,0],[0.75,0],[1,0],[1,0.25],[1,0.5],[1,0.75],[1,1],[0.75,1],[0.5,1],[0.25,1],[0,1],[0,0.75],[0,0.5],[0,0.25]];outlineConnect=0;fontColor=default;strokeColor=#232F3E;fillColor=#FFFFFF;dashed=0;verticalLabelPosition=bottom;verticalAlign=top;align=center;html=1;fontSize=12;fontStyle=0;aspect=fixed;shape=mxgraph.aws4.resourceIcon;resIcon=mxgraph.aws4.container_1;perimeterSpacing=0;backgroundOutline=0;labelBackgroundColor=default;" parent="1" vertex="1">
          <mxGeometry x="601.5" y="163.5" width="61" height="60" as="geometry" />
        </mxCell>
        <mxCell id="7FUQ8ZFE2Msjoggg_Z5E-6" value="" style="edgeStyle=orthogonalEdgeStyle;rounded=0;orthogonalLoop=1;jettySize=auto;html=1;entryX=0;entryY=0.5;entryDx=0;entryDy=0;" parent="1" source="qcChBqA-RkKrQfOubQv_-1" target="7FUQ8ZFE2Msjoggg_Z5E-5" edge="1">
          <mxGeometry relative="1" as="geometry">
            <mxPoint x="473.5" y="203.5" as="sourcePoint" />
            <mxPoint x="533.5" y="203.5" as="targetPoint" />
          </mxGeometry>
        </mxCell>
        <mxCell id="7FUQ8ZFE2Msjoggg_Z5E-10" value="" style="edgeStyle=orthogonalEdgeStyle;rounded=0;orthogonalLoop=1;jettySize=auto;html=1;startArrow=none;startFill=0;strokeColor=#545B64;fontSize=8;" parent="1" source="7FUQ8ZFE2Msjoggg_Z5E-7" target="7FUQ8ZFE2Msjoggg_Z5E-9" edge="1">
          <mxGeometry relative="1" as="geometry">
            <Array as="points">
              <mxPoint x="730.5" y="354" />
              <mxPoint x="730.5" y="354" />
            </Array>
          </mxGeometry>
        </mxCell>
        <mxCell id="7FUQ8ZFE2Msjoggg_Z5E-7" value="job-created" style="outlineConnect=0;fontColor=#232F3E;gradientColor=none;strokeColor=#232F3E;fillColor=#ffffff;dashed=0;verticalLabelPosition=bottom;verticalAlign=top;align=center;html=1;fontSize=12;fontStyle=0;aspect=fixed;shape=mxgraph.aws4.resourceIcon;resIcon=mxgraph.aws4.message;" parent="1" vertex="1">
          <mxGeometry x="769" y="327" width="60" height="60" as="geometry" />
        </mxCell>
        <mxCell id="SrODZw-WOt68CoaygPpk-30" value="" style="edgeStyle=orthogonalEdgeStyle;rounded=0;jumpStyle=arc;orthogonalLoop=1;jettySize=auto;html=1;" parent="1" source="7FUQ8ZFE2Msjoggg_Z5E-9" target="No7pV-notClb6I_pl6TP-14" edge="1">
          <mxGeometry relative="1" as="geometry" />
        </mxCell>
        <mxCell id="7FUQ8ZFE2Msjoggg_Z5E-9" value="JobApprover&lt;br&gt;" style="points=[[0,0],[0.25,0],[0.5,0],[0.75,0],[1,0],[1,0.25],[1,0.5],[1,0.75],[1,1],[0.75,1],[0.5,1],[0.25,1],[0,1],[0,0.75],[0,0.5],[0,0.25]];outlineConnect=0;fontColor=#232F3E;gradientColor=none;strokeColor=#232F3E;fillColor=#ffffff;dashed=0;verticalLabelPosition=bottom;verticalAlign=top;align=center;html=1;fontSize=12;fontStyle=0;aspect=fixed;shape=mxgraph.aws4.resourceIcon;resIcon=mxgraph.aws4.lambda_function;labelBackgroundColor=default;" parent="1" vertex="1">
          <mxGeometry x="604.5" y="327" width="62" height="60" as="geometry" />
        </mxCell>
        <mxCell id="No7pV-notClb6I_pl6TP-15" value="job-approved-by-user" style="outlineConnect=0;fontColor=#232F3E;gradientColor=none;strokeColor=#232F3E;fillColor=#ffffff;dashed=0;verticalLabelPosition=bottom;verticalAlign=top;align=center;html=1;fontSize=12;fontStyle=0;aspect=fixed;shape=mxgraph.aws4.resourceIcon;resIcon=mxgraph.aws4.message;" parent="1" vertex="1">
          <mxGeometry x="244" y="572" width="60" height="60" as="geometry" />
        </mxCell>
        <mxCell id="7FUQ8ZFE2Msjoggg_Z5E-12" value="" style="shadow=0;dashed=0;html=1;strokeColor=none;fillColor=#505050;labelPosition=center;verticalLabelPosition=bottom;verticalAlign=top;outlineConnect=0;align=center;shape=mxgraph.office.concepts.email;" parent="1" vertex="1">
          <mxGeometry x="367.5" y="339" width="47" height="36" as="geometry" />
        </mxCell>
        <mxCell id="7FUQ8ZFE2Msjoggg_Z5E-13" value="" style="edgeStyle=orthogonalEdgeStyle;rounded=0;orthogonalLoop=1;jettySize=auto;html=1;" parent="1" source="No7pV-notClb6I_pl6TP-14" target="7FUQ8ZFE2Msjoggg_Z5E-12" edge="1">
          <mxGeometry relative="1" as="geometry">
            <mxPoint x="485" y="358" as="sourcePoint" />
            <mxPoint x="224.5" y="358" as="targetPoint" />
          </mxGeometry>
        </mxCell>
        <mxCell id="7FUQ8ZFE2Msjoggg_Z5E-18" value="" style="edgeStyle=orthogonalEdgeStyle;rounded=0;orthogonalLoop=1;jettySize=auto;html=1;startArrow=none;startFill=0;strokeColor=#545B64;fontSize=8;" parent="1" source="7FUQ8ZFE2Msjoggg_Z5E-25" target="7FUQ8ZFE2Msjoggg_Z5E-16" edge="1">
          <mxGeometry relative="1" as="geometry" />
        </mxCell>
        <mxCell id="7FUQ8ZFE2Msjoggg_Z5E-14" value="JobScheduler&lt;br&gt;" style="points=[[0,0],[0.25,0],[0.5,0],[0.75,0],[1,0],[1,0.25],[1,0.5],[1,0.75],[1,1],[0.75,1],[0.5,1],[0.25,1],[0,1],[0,0.75],[0,0.5],[0,0.25]];outlineConnect=0;fontColor=#232F3E;gradientColor=none;strokeColor=#232F3E;fillColor=#ffffff;dashed=0;verticalLabelPosition=bottom;verticalAlign=top;align=center;html=1;fontSize=12;fontStyle=0;aspect=fixed;shape=mxgraph.aws4.resourceIcon;resIcon=mxgraph.aws4.lambda_function;labelBackgroundColor=default;spacingBottom=0;" parent="1" vertex="1">
          <mxGeometry x="604.5" y="1041" width="61" height="60" as="geometry" />
        </mxCell>
        <mxCell id="7FUQ8ZFE2Msjoggg_Z5E-19" value="" style="edgeStyle=orthogonalEdgeStyle;rounded=0;orthogonalLoop=1;jettySize=auto;html=1;startArrow=none;startFill=0;strokeColor=#545B64;fontSize=8;" parent="1" source="7FUQ8ZFE2Msjoggg_Z5E-16" target="7FUQ8ZFE2Msjoggg_Z5E-17" edge="1">
          <mxGeometry relative="1" as="geometry" />
        </mxCell>
        <mxCell id="7FUQ8ZFE2Msjoggg_Z5E-32" value="" style="edgeStyle=orthogonalEdgeStyle;rounded=0;orthogonalLoop=1;jettySize=auto;html=1;startArrow=none;startFill=0;strokeColor=#545B64;fontSize=8;" parent="1" source="7FUQ8ZFE2Msjoggg_Z5E-16" target="7FUQ8ZFE2Msjoggg_Z5E-24" edge="1">
          <mxGeometry relative="1" as="geometry">
            <mxPoint x="396" y="1200.9999999999998" as="targetPoint" />
            <Array as="points">
              <mxPoint x="395.5" y="1243" />
            </Array>
          </mxGeometry>
        </mxCell>
        <mxCell id="7FUQ8ZFE2Msjoggg_Z5E-35" value="" style="edgeStyle=orthogonalEdgeStyle;rounded=0;orthogonalLoop=1;jettySize=auto;html=1;startArrow=none;startFill=0;strokeColor=#545B64;fontSize=8;" parent="1" source="7FUQ8ZFE2Msjoggg_Z5E-16" target="7FUQ8ZFE2Msjoggg_Z5E-34" edge="1">
          <mxGeometry relative="1" as="geometry" />
        </mxCell>
        <mxCell id="7FUQ8ZFE2Msjoggg_Z5E-16" value="AWS Batch" style="points=[[0,0],[0.25,0],[0.5,0],[0.75,0],[1,0],[1,0.25],[1,0.5],[1,0.75],[1,1],[0.75,1],[0.5,1],[0.25,1],[0,1],[0,0.75],[0,0.5],[0,0.25]];outlineConnect=0;fontColor=#232F3E;gradientColor=none;strokeColor=#ffffff;fillColor=#232F3E;dashed=0;verticalLabelPosition=middle;verticalAlign=bottom;align=center;html=1;whiteSpace=wrap;fontSize=10;fontStyle=1;spacing=3;shape=mxgraph.aws4.productIcon;prIcon=mxgraph.aws4.batch;" parent="1" vertex="1">
          <mxGeometry x="355.5" y="1021" width="81" height="100" as="geometry" />
        </mxCell>
        <mxCell id="7FUQ8ZFE2Msjoggg_Z5E-21" value="" style="edgeStyle=orthogonalEdgeStyle;rounded=0;orthogonalLoop=1;jettySize=auto;html=1;startArrow=none;startFill=0;strokeColor=#545B64;fontSize=8;" parent="1" source="7FUQ8ZFE2Msjoggg_Z5E-17" target="7FUQ8ZFE2Msjoggg_Z5E-20" edge="1">
          <mxGeometry relative="1" as="geometry" />
        </mxCell>
        <mxCell id="_6u5Ek_jN7iXaBwEbl3a-14" value="" style="edgeStyle=orthogonalEdgeStyle;rounded=0;orthogonalLoop=1;jettySize=auto;html=1;startArrow=none;startFill=0;" parent="1" source="7FUQ8ZFE2Msjoggg_Z5E-17" target="7FUQ8ZFE2Msjoggg_Z5E-64" edge="1">
          <mxGeometry relative="1" as="geometry">
            <mxPoint x="275.5" y="1211" as="targetPoint" />
            <Array as="points">
              <mxPoint x="275.5" y="1350" />
            </Array>
          </mxGeometry>
        </mxCell>
        <mxCell id="7FUQ8ZFE2Msjoggg_Z5E-17" value="CloudWatch&lt;br&gt;task-handler-failed&lt;br&gt;" style="outlineConnect=0;fontColor=#232F3E;gradientColor=none;strokeColor=#ffffff;fillColor=#232F3E;dashed=0;verticalLabelPosition=middle;verticalAlign=bottom;align=center;html=1;whiteSpace=wrap;fontSize=10;fontStyle=1;spacing=3;shape=mxgraph.aws4.productIcon;prIcon=mxgraph.aws4.cloudwatch;" parent="1" vertex="1">
          <mxGeometry x="235.5" y="1011" width="80" height="120" as="geometry" />
        </mxCell>
        <mxCell id="7FUQ8ZFE2Msjoggg_Z5E-23" value="" style="edgeStyle=orthogonalEdgeStyle;rounded=0;orthogonalLoop=1;jettySize=auto;html=1;startArrow=none;startFill=0;strokeColor=#545B64;fontSize=8;entryX=1;entryY=0.5;entryDx=0;entryDy=0;" parent="1" source="7FUQ8ZFE2Msjoggg_Z5E-20" target="7FUQ8ZFE2Msjoggg_Z5E-33" edge="1">
          <mxGeometry relative="1" as="geometry">
            <mxPoint x="75.5" y="1071" as="targetPoint" />
          </mxGeometry>
        </mxCell>
        <mxCell id="7FUQ8ZFE2Msjoggg_Z5E-20" value="ereefs-administration" style="outlineConnect=0;fontColor=#232F3E;gradientColor=none;strokeColor=#232F3E;fillColor=#ffffff;dashed=0;verticalLabelPosition=bottom;verticalAlign=top;align=center;html=1;fontSize=12;fontStyle=0;aspect=fixed;shape=mxgraph.aws4.resourceIcon;resIcon=mxgraph.aws4.message;" parent="1" vertex="1">
          <mxGeometry x="114.5" y="1041" width="60" height="60" as="geometry" />
        </mxCell>
        <mxCell id="7FUQ8ZFE2Msjoggg_Z5E-43" value="" style="edgeStyle=orthogonalEdgeStyle;rounded=0;orthogonalLoop=1;jettySize=auto;html=1;startArrow=none;startFill=0;strokeColor=#545B64;fontSize=8;" parent="1" source="7FUQ8ZFE2Msjoggg_Z5E-64" target="7FUQ8ZFE2Msjoggg_Z5E-42" edge="1">
          <mxGeometry relative="1" as="geometry">
            <mxPoint x="394.5689655172414" y="1401" as="sourcePoint" />
          </mxGeometry>
        </mxCell>
        <mxCell id="7FUQ8ZFE2Msjoggg_Z5E-65" value="" style="edgeStyle=orthogonalEdgeStyle;rounded=0;orthogonalLoop=1;jettySize=auto;html=1;startArrow=none;startFill=0;strokeColor=#545B64;fontSize=8;" parent="1" source="7FUQ8ZFE2Msjoggg_Z5E-24" target="7FUQ8ZFE2Msjoggg_Z5E-64" edge="1">
          <mxGeometry relative="1" as="geometry" />
        </mxCell>
        <mxCell id="7FUQ8ZFE2Msjoggg_Z5E-24" value="CloudWatch&lt;br&gt;task-handler-finished&lt;br&gt;" style="outlineConnect=0;fontColor=#232F3E;gradientColor=none;strokeColor=#ffffff;fillColor=#232F3E;dashed=0;verticalLabelPosition=middle;verticalAlign=bottom;align=center;html=1;whiteSpace=wrap;fontSize=10;fontStyle=1;spacing=3;shape=mxgraph.aws4.productIcon;prIcon=mxgraph.aws4.cloudwatch;" parent="1" vertex="1">
          <mxGeometry x="354.5" y="1162" width="80" height="121" as="geometry" />
        </mxCell>
        <mxCell id="7FUQ8ZFE2Msjoggg_Z5E-25" value="Tasks to process?" style="rhombus;whiteSpace=wrap;html=1;" parent="1" vertex="1">
          <mxGeometry x="485" y="1031" width="80" height="80" as="geometry" />
        </mxCell>
        <mxCell id="7FUQ8ZFE2Msjoggg_Z5E-26" value="" style="edgeStyle=orthogonalEdgeStyle;rounded=0;orthogonalLoop=1;jettySize=auto;html=1;startArrow=none;startFill=0;strokeColor=#545B64;fontSize=8;" parent="1" source="7FUQ8ZFE2Msjoggg_Z5E-14" target="7FUQ8ZFE2Msjoggg_Z5E-25" edge="1">
          <mxGeometry relative="1" as="geometry">
            <mxPoint x="605.5" y="1071.0689655172414" as="sourcePoint" />
            <mxPoint x="436.4999999999998" y="1077.9655172413793" as="targetPoint" />
          </mxGeometry>
        </mxCell>
        <mxCell id="7FUQ8ZFE2Msjoggg_Z5E-27" value="Yes&lt;br&gt;" style="text;html=1;resizable=0;points=[];align=center;verticalAlign=middle;labelBackgroundColor=#ffffff;" parent="1" vertex="1" connectable="0">
          <mxGeometry x="465.6379310344828" y="1049.0689655172414" as="geometry">
            <mxPoint x="9" y="12" as="offset" />
          </mxGeometry>
        </mxCell>
        <mxCell id="7FUQ8ZFE2Msjoggg_Z5E-28" value="" style="edgeStyle=orthogonalEdgeStyle;rounded=0;orthogonalLoop=1;jettySize=auto;html=1;exitX=0.5;exitY=0;exitDx=0;exitDy=0;entryX=0.5;entryY=1;entryDx=0;entryDy=0;" parent="1" source="7FUQ8ZFE2Msjoggg_Z5E-25" target="7FUQ8ZFE2Msjoggg_Z5E-30" edge="1">
          <mxGeometry relative="1" as="geometry">
            <mxPoint x="554.7586206896553" y="1253.5" as="targetPoint" />
            <mxPoint x="554.7586206896553" y="1198.5689655172414" as="sourcePoint" />
            <Array as="points" />
          </mxGeometry>
        </mxCell>
        <mxCell id="7FUQ8ZFE2Msjoggg_Z5E-29" value="No" style="text;html=1;resizable=0;points=[];align=center;verticalAlign=middle;labelBackgroundColor=#ffffff;" parent="7FUQ8ZFE2Msjoggg_Z5E-28" vertex="1" connectable="0">
          <mxGeometry x="0.2" y="2" relative="1" as="geometry">
            <mxPoint x="12.5" y="18.5" as="offset" />
          </mxGeometry>
        </mxCell>
        <mxCell id="7FUQ8ZFE2Msjoggg_Z5E-30" value="" style="ellipse;html=1;shape=endState;fillColor=#000000;strokeColor=#ff0000;" parent="1" vertex="1">
          <mxGeometry x="510" y="953" width="30" height="30" as="geometry" />
        </mxCell>
        <mxCell id="7FUQ8ZFE2Msjoggg_Z5E-33" value="" style="ellipse;html=1;shape=endState;fillColor=#000000;strokeColor=#ff0000;" parent="1" vertex="1">
          <mxGeometry x="8" y="1056" width="30" height="30" as="geometry" />
        </mxCell>
        <mxCell id="7FUQ8ZFE2Msjoggg_Z5E-37" value="" style="edgeStyle=orthogonalEdgeStyle;rounded=0;orthogonalLoop=1;jettySize=auto;html=1;startArrow=none;startFill=0;strokeColor=#545B64;fontSize=8;" parent="1" source="7FUQ8ZFE2Msjoggg_Z5E-34" target="7FUQ8ZFE2Msjoggg_Z5E-36" edge="1">
          <mxGeometry relative="1" as="geometry" />
        </mxCell>
        <mxCell id="_6u5Ek_jN7iXaBwEbl3a-12" value="" style="edgeStyle=orthogonalEdgeStyle;rounded=0;orthogonalLoop=1;jettySize=auto;html=1;startArrow=none;startFill=0;" parent="1" source="7FUQ8ZFE2Msjoggg_Z5E-34" target="_6u5Ek_jN7iXaBwEbl3a-6" edge="1">
          <mxGeometry relative="1" as="geometry" />
        </mxCell>
        <mxCell id="7FUQ8ZFE2Msjoggg_Z5E-34" value="CloudWatch&lt;br&gt;task-handler-submitted" style="outlineConnect=0;fontColor=#232F3E;gradientColor=none;strokeColor=#ffffff;fillColor=#232F3E;dashed=0;verticalLabelPosition=middle;verticalAlign=bottom;align=center;html=1;whiteSpace=wrap;fontSize=10;fontStyle=1;spacing=3;shape=mxgraph.aws4.productIcon;prIcon=mxgraph.aws4.cloudwatch;" parent="1" vertex="1">
          <mxGeometry x="355.5" y="838.5" width="81" height="125" as="geometry" />
        </mxCell>
        <mxCell id="7FUQ8ZFE2Msjoggg_Z5E-39" value="" style="edgeStyle=orthogonalEdgeStyle;rounded=0;orthogonalLoop=1;jettySize=auto;html=1;startArrow=none;startFill=0;strokeColor=#545B64;fontSize=8;" parent="1" source="7FUQ8ZFE2Msjoggg_Z5E-36" target="7FUQ8ZFE2Msjoggg_Z5E-38" edge="1">
          <mxGeometry relative="1" as="geometry" />
        </mxCell>
        <mxCell id="7FUQ8ZFE2Msjoggg_Z5E-36" value="task-handler-submitted" style="outlineConnect=0;fontColor=#232F3E;gradientColor=none;strokeColor=#232F3E;fillColor=#ffffff;dashed=0;verticalLabelPosition=bottom;verticalAlign=top;align=center;html=1;fontSize=12;fontStyle=0;aspect=fixed;shape=mxgraph.aws4.resourceIcon;resIcon=mxgraph.aws4.message;" parent="1" vertex="1">
          <mxGeometry x="244" y="871" width="60" height="60" as="geometry" />
        </mxCell>
        <mxCell id="7FUQ8ZFE2Msjoggg_Z5E-38" value="TaskHandlerController&lt;br&gt;" style="points=[[0,0],[0.25,0],[0.5,0],[0.75,0],[1,0],[1,0.25],[1,0.5],[1,0.75],[1,1],[0.75,1],[0.5,1],[0.25,1],[0,1],[0,0.75],[0,0.5],[0,0.25]];outlineConnect=0;fontColor=#232F3E;gradientColor=none;strokeColor=#232F3E;fillColor=#ffffff;dashed=0;verticalLabelPosition=bottom;verticalAlign=top;align=center;html=1;fontSize=12;fontStyle=0;aspect=fixed;shape=mxgraph.aws4.resourceIcon;resIcon=mxgraph.aws4.lambda_function;" parent="1" vertex="1">
          <mxGeometry x="116" y="871" width="61" height="60" as="geometry" />
        </mxCell>
        <mxCell id="7FUQ8ZFE2Msjoggg_Z5E-40" value="" style="edgeStyle=orthogonalEdgeStyle;rounded=0;orthogonalLoop=1;jettySize=auto;html=1;startArrow=none;startFill=0;strokeColor=#545B64;fontSize=8;entryX=1;entryY=0.5;entryDx=0;entryDy=0;" parent="1" source="7FUQ8ZFE2Msjoggg_Z5E-38" target="7FUQ8ZFE2Msjoggg_Z5E-41" edge="1">
          <mxGeometry relative="1" as="geometry">
            <mxPoint x="130.5" y="908.7931034482758" as="sourcePoint" />
            <mxPoint x="82.5" y="909" as="targetPoint" />
          </mxGeometry>
        </mxCell>
        <mxCell id="7FUQ8ZFE2Msjoggg_Z5E-41" value="" style="ellipse;html=1;shape=endState;fillColor=#000000;strokeColor=#ff0000;" parent="1" vertex="1">
          <mxGeometry x="8" y="886" width="30" height="30" as="geometry" />
        </mxCell>
        <mxCell id="7FUQ8ZFE2Msjoggg_Z5E-46" value="" style="edgeStyle=orthogonalEdgeStyle;rounded=0;orthogonalLoop=1;jettySize=auto;html=1;startArrow=none;startFill=0;strokeColor=#545B64;fontSize=8;" parent="1" source="_6u5Ek_jN7iXaBwEbl3a-18" target="7FUQ8ZFE2Msjoggg_Z5E-45" edge="1">
          <mxGeometry relative="1" as="geometry">
            <mxPoint x="1258.5" y="1574" as="sourcePoint" />
            <Array as="points" />
          </mxGeometry>
        </mxCell>
        <mxCell id="_6u5Ek_jN7iXaBwEbl3a-17" value="" style="edgeStyle=orthogonalEdgeStyle;rounded=0;orthogonalLoop=1;jettySize=auto;html=1;startArrow=none;startFill=0;" parent="1" source="7FUQ8ZFE2Msjoggg_Z5E-42" target="7FUQ8ZFE2Msjoggg_Z5E-44" edge="1">
          <mxGeometry relative="1" as="geometry" />
        </mxCell>
        <mxCell id="7FUQ8ZFE2Msjoggg_Z5E-42" value="TaskHandlerController" style="points=[[0,0],[0.25,0],[0.5,0],[0.75,0],[1,0],[1,0.25],[1,0.5],[1,0.75],[1,1],[0.75,1],[0.5,1],[0.25,1],[0,1],[0,0.75],[0,0.5],[0,0.25]];outlineConnect=0;fontColor=#232F3E;gradientColor=none;strokeColor=#232F3E;fillColor=#ffffff;dashed=0;verticalLabelPosition=bottom;verticalAlign=top;align=center;html=1;fontSize=12;fontStyle=0;aspect=fixed;shape=mxgraph.aws4.resourceIcon;resIcon=mxgraph.aws4.lambda_function;" parent="1" vertex="1">
          <mxGeometry x="494.5" y="1320" width="61" height="60" as="geometry" />
        </mxCell>
        <mxCell id="7FUQ8ZFE2Msjoggg_Z5E-53" value="" style="edgeStyle=orthogonalEdgeStyle;rounded=0;orthogonalLoop=1;jettySize=auto;html=1;exitX=0.5;exitY=0;exitDx=0;exitDy=0;" parent="1" source="SrODZw-WOt68CoaygPpk-42" target="SrODZw-WOt68CoaygPpk-5" edge="1">
          <mxGeometry relative="1" as="geometry">
            <mxPoint x="830.5" y="964" as="targetPoint" />
            <mxPoint x="570.5" y="1440" as="sourcePoint" />
            <Array as="points">
              <mxPoint x="747.5" y="602" />
            </Array>
          </mxGeometry>
        </mxCell>
        <mxCell id="7FUQ8ZFE2Msjoggg_Z5E-54" value="Yes" style="text;html=1;resizable=0;points=[];align=center;verticalAlign=middle;labelBackgroundColor=#ffffff;" parent="7FUQ8ZFE2Msjoggg_Z5E-53" vertex="1" connectable="0">
          <mxGeometry x="0.2" y="2" relative="1" as="geometry">
            <mxPoint x="-49" y="562" as="offset" />
          </mxGeometry>
        </mxCell>
        <mxCell id="SrODZw-WOt68CoaygPpk-45" value="No" style="text;html=1;resizable=0;points=[];align=center;verticalAlign=middle;labelBackgroundColor=#ffffff;" parent="7FUQ8ZFE2Msjoggg_Z5E-53" vertex="1" connectable="0">
          <mxGeometry x="-0.8282" y="-5" relative="1" as="geometry">
            <mxPoint x="-23" y="3.5" as="offset" />
          </mxGeometry>
        </mxCell>
        <mxCell id="7FUQ8ZFE2Msjoggg_Z5E-59" value="" style="edgeStyle=orthogonalEdgeStyle;rounded=0;orthogonalLoop=1;jettySize=auto;html=1;startArrow=none;startFill=0;strokeColor=#545B64;fontSize=8;" parent="1" source="7FUQ8ZFE2Msjoggg_Z5E-56" target="SrODZw-WOt68CoaygPpk-1" edge="1">
          <mxGeometry relative="1" as="geometry">
            <mxPoint x="962" y="459" as="targetPoint" />
          </mxGeometry>
        </mxCell>
        <mxCell id="7FUQ8ZFE2Msjoggg_Z5E-56" value="JobTerminator&lt;br&gt;" style="points=[[0,0],[0.25,0],[0.5,0],[0.75,0],[1,0],[1,0.25],[1,0.5],[1,0.75],[1,1],[0.75,1],[0.5,1],[0.25,1],[0,1],[0,0.75],[0,0.5],[0,0.25]];outlineConnect=0;fontColor=#232F3E;gradientColor=none;strokeColor=#232F3E;fillColor=#ffffff;dashed=0;verticalLabelPosition=bottom;verticalAlign=top;align=center;html=1;fontSize=12;fontStyle=0;aspect=fixed;shape=mxgraph.aws4.resourceIcon;resIcon=mxgraph.aws4.lambda_function;labelBackgroundColor=default;" parent="1" vertex="1">
          <mxGeometry x="931.5" y="327" width="61" height="60" as="geometry" />
        </mxCell>
        <mxCell id="7FUQ8ZFE2Msjoggg_Z5E-57" value="" style="edgeStyle=orthogonalEdgeStyle;rounded=0;orthogonalLoop=1;jettySize=auto;html=1;startArrow=none;startFill=0;strokeColor=#545B64;fontSize=8;" parent="1" source="7FUQ8ZFE2Msjoggg_Z5E-7" target="7FUQ8ZFE2Msjoggg_Z5E-56" edge="1">
          <mxGeometry relative="1" as="geometry">
            <mxPoint x="653" y="204.24137931034488" as="sourcePoint" />
            <mxPoint x="743.2586206896553" y="263.0000000000001" as="targetPoint" />
            <Array as="points">
              <mxPoint x="890.5" y="357" />
              <mxPoint x="890.5" y="357" />
            </Array>
          </mxGeometry>
        </mxCell>
        <mxCell id="7FUQ8ZFE2Msjoggg_Z5E-63" value="" style="edgeStyle=orthogonalEdgeStyle;rounded=0;orthogonalLoop=1;jettySize=auto;html=1;startArrow=none;startFill=0;strokeColor=#545B64;fontSize=8;exitX=1;exitY=0.25;exitDx=0;exitDy=0;" parent="1" source="SrODZw-WOt68CoaygPpk-55" target="7FUQ8ZFE2Msjoggg_Z5E-60" edge="1">
          <mxGeometry relative="1" as="geometry">
            <mxPoint x="972.5" y="2072" as="sourcePoint" />
          </mxGeometry>
        </mxCell>
        <mxCell id="7FUQ8ZFE2Msjoggg_Z5E-67" value="" style="edgeStyle=orthogonalEdgeStyle;rounded=0;orthogonalLoop=1;jettySize=auto;html=1;startArrow=none;startFill=0;strokeColor=#545B64;fontSize=8;exitX=1;exitY=0.75;exitDx=0;exitDy=0;" parent="1" source="SrODZw-WOt68CoaygPpk-55" target="7FUQ8ZFE2Msjoggg_Z5E-66" edge="1">
          <mxGeometry relative="1" as="geometry">
            <Array as="points">
              <mxPoint x="498.5" y="1658" />
              <mxPoint x="498.5" y="1700" />
            </Array>
            <mxPoint x="856.5" y="2042" as="sourcePoint" />
          </mxGeometry>
        </mxCell>
        <mxCell id="7FUQ8ZFE2Msjoggg_Z5E-69" value="" style="edgeStyle=orthogonalEdgeStyle;rounded=0;orthogonalLoop=1;jettySize=auto;html=1;startArrow=none;startFill=0;strokeColor=#545B64;fontSize=8;entryX=0.5;entryY=1;entryDx=0;entryDy=0;" parent="1" source="7FUQ8ZFE2Msjoggg_Z5E-60" target="7FUQ8ZFE2Msjoggg_Z5E-68" edge="1">
          <mxGeometry relative="1" as="geometry">
            <mxPoint x="843.5" y="2515" as="targetPoint" />
          </mxGeometry>
        </mxCell>
        <mxCell id="7FUQ8ZFE2Msjoggg_Z5E-60" value="job-termination&lt;br&gt;-requested" style="outlineConnect=0;fontColor=#232F3E;gradientColor=none;strokeColor=#232F3E;fillColor=#ffffff;dashed=0;verticalLabelPosition=bottom;verticalAlign=top;align=center;html=1;fontSize=12;fontStyle=0;aspect=fixed;shape=mxgraph.aws4.resourceIcon;resIcon=mxgraph.aws4.message;" parent="1" vertex="1">
          <mxGeometry x="574" y="1559" width="58" height="60" as="geometry" />
        </mxCell>
        <mxCell id="7FUQ8ZFE2Msjoggg_Z5E-71" value="" style="edgeStyle=orthogonalEdgeStyle;rounded=0;orthogonalLoop=1;jettySize=auto;html=1;startArrow=none;startFill=0;strokeColor=#545B64;fontSize=8;" parent="1" source="7FUQ8ZFE2Msjoggg_Z5E-66" target="7FUQ8ZFE2Msjoggg_Z5E-68" edge="1">
          <mxGeometry relative="1" as="geometry">
            <mxPoint x="844" y="2515" as="targetPoint" />
            <Array as="points">
              <mxPoint x="742.5" y="1700" />
            </Array>
          </mxGeometry>
        </mxCell>
        <mxCell id="7FUQ8ZFE2Msjoggg_Z5E-66" value="task-termination&lt;br&gt;-requested" style="outlineConnect=0;fontColor=#232F3E;gradientColor=none;strokeColor=#232F3E;fillColor=#ffffff;dashed=0;verticalLabelPosition=bottom;verticalAlign=top;align=center;html=1;fontSize=12;fontStyle=0;aspect=fixed;shape=mxgraph.aws4.resourceIcon;resIcon=mxgraph.aws4.message;" parent="1" vertex="1">
          <mxGeometry x="574" y="1670" width="59" height="60" as="geometry" />
        </mxCell>
        <mxCell id="7FUQ8ZFE2Msjoggg_Z5E-64" value="task-handler-finished" style="outlineConnect=0;fontColor=#232F3E;gradientColor=none;strokeColor=#232F3E;fillColor=#ffffff;dashed=0;verticalLabelPosition=bottom;verticalAlign=top;align=center;html=1;fontSize=12;fontStyle=0;aspect=fixed;shape=mxgraph.aws4.resourceIcon;resIcon=mxgraph.aws4.message;labelBackgroundColor=default;" parent="1" vertex="1">
          <mxGeometry x="364" y="1320" width="61" height="60" as="geometry" />
        </mxCell>
        <mxCell id="7FUQ8ZFE2Msjoggg_Z5E-74" value="" style="edgeStyle=orthogonalEdgeStyle;rounded=0;orthogonalLoop=1;jettySize=auto;html=1;startArrow=none;startFill=0;strokeColor=#545B64;fontSize=8;" parent="1" source="7FUQ8ZFE2Msjoggg_Z5E-68" target="7FUQ8ZFE2Msjoggg_Z5E-72" edge="1">
          <mxGeometry relative="1" as="geometry">
            <mxPoint x="624.5" y="1330" as="targetPoint" />
          </mxGeometry>
        </mxCell>
        <mxCell id="7FUQ8ZFE2Msjoggg_Z5E-68" value="JobTerminator&lt;br&gt;" style="points=[[0,0],[0.25,0],[0.5,0],[0.75,0],[1,0],[1,0.25],[1,0.5],[1,0.75],[1,1],[0.75,1],[0.5,1],[0.25,1],[0,1],[0,0.75],[0,0.5],[0,0.25]];outlineConnect=0;fontColor=#232F3E;gradientColor=none;strokeColor=#232F3E;fillColor=#ffffff;dashed=0;verticalLabelPosition=bottom;verticalAlign=top;align=center;html=1;fontSize=12;fontStyle=0;aspect=fixed;shape=mxgraph.aws4.resourceIcon;resIcon=mxgraph.aws4.lambda_function;labelBackgroundColor=default;" parent="1" vertex="1">
          <mxGeometry x="712.5" y="1445" width="61" height="60" as="geometry" />
        </mxCell>
        <mxCell id="7FUQ8ZFE2Msjoggg_Z5E-78" value="" style="edgeStyle=orthogonalEdgeStyle;rounded=0;orthogonalLoop=1;jettySize=auto;html=1;startArrow=none;startFill=0;strokeColor=#545B64;fontSize=8;" parent="1" source="7FUQ8ZFE2Msjoggg_Z5E-72" target="7FUQ8ZFE2Msjoggg_Z5E-75" edge="1">
          <mxGeometry relative="1" as="geometry" />
        </mxCell>
        <mxCell id="7FUQ8ZFE2Msjoggg_Z5E-72" value="task-terminating" style="outlineConnect=0;fontColor=#232F3E;gradientColor=none;strokeColor=#232F3E;fillColor=#ffffff;dashed=0;verticalLabelPosition=bottom;verticalAlign=top;align=center;html=1;fontSize=12;fontStyle=0;aspect=fixed;shape=mxgraph.aws4.resourceIcon;resIcon=mxgraph.aws4.message;" parent="1" vertex="1">
          <mxGeometry x="575" y="1445" width="59" height="60" as="geometry" />
        </mxCell>
        <mxCell id="7FUQ8ZFE2Msjoggg_Z5E-75" value="TaskHandlerController&lt;br&gt;" style="points=[[0,0],[0.25,0],[0.5,0],[0.75,0],[1,0],[1,0.25],[1,0.5],[1,0.75],[1,1],[0.75,1],[0.5,1],[0.25,1],[0,1],[0,0.75],[0,0.5],[0,0.25]];outlineConnect=0;fontColor=#232F3E;gradientColor=none;strokeColor=#232F3E;fillColor=#ffffff;dashed=0;verticalLabelPosition=bottom;verticalAlign=top;align=center;html=1;fontSize=12;fontStyle=0;aspect=fixed;shape=mxgraph.aws4.resourceIcon;resIcon=mxgraph.aws4.lambda_function;" parent="1" vertex="1">
          <mxGeometry x="435.5" y="1445" width="61" height="60" as="geometry" />
        </mxCell>
        <mxCell id="7FUQ8ZFE2Msjoggg_Z5E-45" value="Are all Tasks finished?" style="rhombus;whiteSpace=wrap;html=1;" parent="1" vertex="1">
          <mxGeometry x="709" y="1174" width="78" height="80" as="geometry" />
        </mxCell>
        <mxCell id="_6u5Ek_jN7iXaBwEbl3a-19" value="" style="edgeStyle=orthogonalEdgeStyle;rounded=0;orthogonalLoop=1;jettySize=auto;html=1;startArrow=none;startFill=0;" parent="1" source="7FUQ8ZFE2Msjoggg_Z5E-44" target="_6u5Ek_jN7iXaBwEbl3a-18" edge="1">
          <mxGeometry relative="1" as="geometry" />
        </mxCell>
        <mxCell id="7FUQ8ZFE2Msjoggg_Z5E-44" value="task-finished" style="outlineConnect=0;fontColor=#232F3E;gradientColor=none;strokeColor=#232F3E;fillColor=#ffffff;dashed=0;verticalLabelPosition=bottom;verticalAlign=top;align=center;html=1;fontSize=12;fontStyle=0;aspect=fixed;shape=mxgraph.aws4.resourceIcon;resIcon=mxgraph.aws4.message;" parent="1" vertex="1">
          <mxGeometry x="606" y="1320" width="58" height="60" as="geometry" />
        </mxCell>
        <mxCell id="YoKg1egTlQ5OGGmNP6iv-5" value="" style="edgeStyle=orthogonalEdgeStyle;rounded=0;orthogonalLoop=1;jettySize=auto;html=1;strokeColor=#545B64;" parent="1" source="YoKg1egTlQ5OGGmNP6iv-1" target="YoKg1egTlQ5OGGmNP6iv-4" edge="1">
          <mxGeometry relative="1" as="geometry">
            <mxPoint x="964.5" y="2143.5" as="sourcePoint" />
            <mxPoint x="964.5" y="2216" as="targetPoint" />
          </mxGeometry>
        </mxCell>
        <mxCell id="YoKg1egTlQ5OGGmNP6iv-1" value="CloudWatch&lt;br&gt;spot-instance-terminating&lt;br&gt;" style="outlineConnect=0;fontColor=#232F3E;gradientColor=none;strokeColor=#ffffff;fillColor=#232F3E;dashed=0;verticalLabelPosition=middle;verticalAlign=bottom;align=center;html=1;whiteSpace=wrap;fontSize=10;fontStyle=1;spacing=3;shape=mxgraph.aws4.productIcon;prIcon=mxgraph.aws4.cloudwatch;" parent="1" vertex="1">
          <mxGeometry x="921" y="1590" width="81" height="125" as="geometry" />
        </mxCell>
        <mxCell id="YoKg1egTlQ5OGGmNP6iv-3" value="" style="edgeStyle=orthogonalEdgeStyle;rounded=0;orthogonalLoop=1;jettySize=auto;html=1;strokeColor=#545B64;" parent="1" source="YoKg1egTlQ5OGGmNP6iv-2" target="YoKg1egTlQ5OGGmNP6iv-1" edge="1">
          <mxGeometry relative="1" as="geometry">
            <mxPoint x="985" y="1410" as="sourcePoint" />
            <mxPoint x="985" y="1454.5" as="targetPoint" />
          </mxGeometry>
        </mxCell>
        <mxCell id="YoKg1egTlQ5OGGmNP6iv-2" value="" style="ellipse;html=1;shape=startState;fillColor=#000000;strokeColor=#ff0000;" parent="1" vertex="1">
          <mxGeometry x="947" y="1760" width="29" height="30" as="geometry" />
        </mxCell>
        <mxCell id="YoKg1egTlQ5OGGmNP6iv-7" value="" style="edgeStyle=orthogonalEdgeStyle;rounded=0;orthogonalLoop=1;jettySize=auto;html=1;strokeColor=#545B64;" parent="1" source="YoKg1egTlQ5OGGmNP6iv-4" target="7FUQ8ZFE2Msjoggg_Z5E-68" edge="1">
          <mxGeometry relative="1" as="geometry">
            <mxPoint x="820.5" y="1654" as="targetPoint" />
            <Array as="points">
              <mxPoint x="900.5" y="1475" />
              <mxPoint x="900.5" y="1475" />
            </Array>
            <mxPoint x="966.5" y="2276" as="sourcePoint" />
          </mxGeometry>
        </mxCell>
        <mxCell id="YoKg1egTlQ5OGGmNP6iv-4" value="spot-instance&lt;br&gt;-terminating&lt;br&gt;" style="outlineConnect=0;fontColor=#232F3E;gradientColor=none;strokeColor=#232F3E;fillColor=#ffffff;dashed=0;verticalLabelPosition=bottom;verticalAlign=top;align=center;html=1;fontSize=12;fontStyle=0;aspect=fixed;shape=mxgraph.aws4.resourceIcon;resIcon=mxgraph.aws4.message;labelBackgroundColor=default;" parent="1" vertex="1">
          <mxGeometry x="931" y="1445" width="60" height="60" as="geometry" />
        </mxCell>
        <mxCell id="_6u5Ek_jN7iXaBwEbl3a-1" value="download-request" style="outlineConnect=0;fontColor=#232F3E;gradientColor=none;strokeColor=#232F3E;fillColor=#ffffff;dashed=0;verticalLabelPosition=bottom;verticalAlign=top;align=center;html=1;fontSize=12;fontStyle=0;aspect=fixed;shape=mxgraph.aws4.resourceIcon;resIcon=mxgraph.aws4.message;" parent="1" vertex="1">
          <mxGeometry x="219.5" y="164" width="60" height="60" as="geometry" />
        </mxCell>
        <mxCell id="_6u5Ek_jN7iXaBwEbl3a-2" value="" style="edgeStyle=orthogonalEdgeStyle;rounded=0;orthogonalLoop=1;jettySize=auto;html=1;entryX=0;entryY=0.5;entryDx=0;entryDy=0;" parent="1" source="7FUQ8ZFE2Msjoggg_Z5E-1" target="_6u5Ek_jN7iXaBwEbl3a-1" edge="1">
          <mxGeometry relative="1" as="geometry">
            <mxPoint x="161.5" y="194" as="sourcePoint" />
            <mxPoint x="402.5" y="194" as="targetPoint" />
          </mxGeometry>
        </mxCell>
        <mxCell id="_6u5Ek_jN7iXaBwEbl3a-3" value="JobApprover&lt;br&gt;" style="points=[[0,0],[0.25,0],[0.5,0],[0.75,0],[1,0],[1,0.25],[1,0.5],[1,0.75],[1,1],[0.75,1],[0.5,1],[0.25,1],[0,1],[0,0.75],[0,0.5],[0,0.25]];outlineConnect=0;fontColor=#232F3E;gradientColor=none;strokeColor=#232F3E;fillColor=#ffffff;dashed=0;verticalLabelPosition=bottom;verticalAlign=top;align=center;html=1;fontSize=12;fontStyle=0;aspect=fixed;shape=mxgraph.aws4.resourceIcon;resIcon=mxgraph.aws4.lambda_function;" parent="1" vertex="1">
          <mxGeometry x="435.5" y="572" width="62" height="60" as="geometry" />
        </mxCell>
        <mxCell id="_6u5Ek_jN7iXaBwEbl3a-4" value="" style="edgeStyle=orthogonalEdgeStyle;rounded=0;orthogonalLoop=1;jettySize=auto;html=1;" parent="1" source="No7pV-notClb6I_pl6TP-15" target="_6u5Ek_jN7iXaBwEbl3a-3" edge="1">
          <mxGeometry relative="1" as="geometry">
            <mxPoint x="605" y="602" as="targetPoint" />
            <mxPoint x="304" y="602" as="sourcePoint" />
          </mxGeometry>
        </mxCell>
        <mxCell id="_6u5Ek_jN7iXaBwEbl3a-5" value="" style="edgeStyle=orthogonalEdgeStyle;rounded=0;orthogonalLoop=1;jettySize=auto;html=1;startArrow=none;startFill=0;strokeColor=#545B64;fontSize=8;" parent="1" source="_6u5Ek_jN7iXaBwEbl3a-6" target="_6u5Ek_jN7iXaBwEbl3a-8" edge="1">
          <mxGeometry relative="1" as="geometry" />
        </mxCell>
        <mxCell id="_6u5Ek_jN7iXaBwEbl3a-6" value="CloudWatch&lt;br&gt;task-handler-running&lt;br&gt;" style="outlineConnect=0;fontColor=#232F3E;gradientColor=none;strokeColor=#ffffff;fillColor=#232F3E;dashed=0;verticalLabelPosition=middle;verticalAlign=bottom;align=center;html=1;whiteSpace=wrap;fontSize=10;fontStyle=1;spacing=3;shape=mxgraph.aws4.productIcon;prIcon=mxgraph.aws4.cloudwatch;" parent="1" vertex="1">
          <mxGeometry x="355.5" y="680" width="81" height="125" as="geometry" />
        </mxCell>
        <mxCell id="_6u5Ek_jN7iXaBwEbl3a-7" value="" style="edgeStyle=orthogonalEdgeStyle;rounded=0;orthogonalLoop=1;jettySize=auto;html=1;startArrow=none;startFill=0;strokeColor=#545B64;fontSize=8;" parent="1" source="_6u5Ek_jN7iXaBwEbl3a-8" target="_6u5Ek_jN7iXaBwEbl3a-9" edge="1">
          <mxGeometry relative="1" as="geometry" />
        </mxCell>
        <mxCell id="_6u5Ek_jN7iXaBwEbl3a-8" value="task-handler-running" style="outlineConnect=0;fontColor=#232F3E;gradientColor=none;strokeColor=#232F3E;fillColor=#ffffff;dashed=0;verticalLabelPosition=bottom;verticalAlign=top;align=center;html=1;fontSize=12;fontStyle=0;aspect=fixed;shape=mxgraph.aws4.resourceIcon;resIcon=mxgraph.aws4.message;" parent="1" vertex="1">
          <mxGeometry x="244" y="712.5" width="60" height="60" as="geometry" />
        </mxCell>
        <mxCell id="_6u5Ek_jN7iXaBwEbl3a-9" value="TaskHandlerController&lt;br&gt;" style="points=[[0,0],[0.25,0],[0.5,0],[0.75,0],[1,0],[1,0.25],[1,0.5],[1,0.75],[1,1],[0.75,1],[0.5,1],[0.25,1],[0,1],[0,0.75],[0,0.5],[0,0.25]];outlineConnect=0;fontColor=#232F3E;gradientColor=none;strokeColor=#232F3E;fillColor=#ffffff;dashed=0;verticalLabelPosition=bottom;verticalAlign=top;align=center;html=1;fontSize=12;fontStyle=0;aspect=fixed;shape=mxgraph.aws4.resourceIcon;resIcon=mxgraph.aws4.lambda_function;" parent="1" vertex="1">
          <mxGeometry x="116" y="712.5" width="61" height="60" as="geometry" />
        </mxCell>
        <mxCell id="_6u5Ek_jN7iXaBwEbl3a-10" value="" style="edgeStyle=orthogonalEdgeStyle;rounded=0;orthogonalLoop=1;jettySize=auto;html=1;startArrow=none;startFill=0;strokeColor=#545B64;fontSize=8;entryX=1;entryY=0.5;entryDx=0;entryDy=0;" parent="1" source="_6u5Ek_jN7iXaBwEbl3a-9" target="_6u5Ek_jN7iXaBwEbl3a-11" edge="1">
          <mxGeometry relative="1" as="geometry">
            <mxPoint x="130.5" y="750.2931034482758" as="sourcePoint" />
            <mxPoint x="82.5" y="750.5" as="targetPoint" />
          </mxGeometry>
        </mxCell>
        <mxCell id="_6u5Ek_jN7iXaBwEbl3a-11" value="" style="ellipse;html=1;shape=endState;fillColor=#000000;strokeColor=#ff0000;" parent="1" vertex="1">
          <mxGeometry x="8" y="727.5" width="30" height="30" as="geometry" />
        </mxCell>
        <mxCell id="_6u5Ek_jN7iXaBwEbl3a-18" value="JobTerminator&lt;br&gt;" style="points=[[0,0],[0.25,0],[0.5,0],[0.75,0],[1,0],[1,0.25],[1,0.5],[1,0.75],[1,1],[0.75,1],[0.5,1],[0.25,1],[0,1],[0,0.75],[0,0.5],[0,0.25]];outlineConnect=0;fontColor=#232F3E;gradientColor=none;strokeColor=#232F3E;fillColor=#ffffff;dashed=0;verticalLabelPosition=bottom;verticalAlign=top;align=center;html=1;fontSize=12;fontStyle=0;aspect=fixed;shape=mxgraph.aws4.resourceIcon;resIcon=mxgraph.aws4.lambda_function;" parent="1" vertex="1">
          <mxGeometry x="717.5" y="1320" width="61" height="60" as="geometry" />
        </mxCell>
        <mxCell id="SrODZw-WOt68CoaygPpk-1" value="Has new Job Tasks?" style="rhombus;whiteSpace=wrap;html=1;" parent="1" vertex="1">
          <mxGeometry x="921.5" y="437" width="80" height="80" as="geometry" />
        </mxCell>
        <mxCell id="SrODZw-WOt68CoaygPpk-2" value="" style="ellipse;html=1;shape=endState;fillColor=#000000;strokeColor=#ff0000;" parent="1" vertex="1">
          <mxGeometry x="1042.5" y="462" width="30" height="30" as="geometry" />
        </mxCell>
        <mxCell id="SrODZw-WOt68CoaygPpk-3" value="" style="edgeStyle=orthogonalEdgeStyle;rounded=0;orthogonalLoop=1;jettySize=auto;html=1;exitX=1;exitY=0.5;exitDx=0;exitDy=0;" parent="1" source="SrODZw-WOt68CoaygPpk-1" target="SrODZw-WOt68CoaygPpk-2" edge="1">
          <mxGeometry relative="1" as="geometry">
            <mxPoint x="658" y="487" as="targetPoint" />
            <mxPoint x="708.5" y="487" as="sourcePoint" />
            <Array as="points" />
          </mxGeometry>
        </mxCell>
        <mxCell id="SrODZw-WOt68CoaygPpk-4" value="Yes&lt;br&gt;" style="text;html=1;resizable=0;points=[];align=center;verticalAlign=middle;labelBackgroundColor=#ffffff;" parent="SrODZw-WOt68CoaygPpk-3" vertex="1" connectable="0">
          <mxGeometry x="-0.2564" y="3" relative="1" as="geometry">
            <mxPoint x="-8" y="14" as="offset" />
          </mxGeometry>
        </mxCell>
        <mxCell id="SrODZw-WOt68CoaygPpk-5" value="job-completed" style="outlineConnect=0;fontColor=#232F3E;gradientColor=none;strokeColor=#232F3E;fillColor=#ffffff;dashed=0;verticalLabelPosition=bottom;verticalAlign=top;align=center;html=1;fontSize=12;fontStyle=0;aspect=fixed;shape=mxgraph.aws4.resourceIcon;resIcon=mxgraph.aws4.message;labelBackgroundColor=default;" parent="1" vertex="1">
          <mxGeometry x="931" y="572" width="60" height="60" as="geometry" />
        </mxCell>
        <mxCell id="SrODZw-WOt68CoaygPpk-8" value="" style="edgeStyle=orthogonalEdgeStyle;rounded=0;orthogonalLoop=1;jettySize=auto;html=1;exitX=1;exitY=0.5;exitDx=0;exitDy=0;entryX=0;entryY=0.5;entryDx=0;entryDy=0;" parent="1" source="7FUQ8ZFE2Msjoggg_Z5E-45" target="SrODZw-WOt68CoaygPpk-10" edge="1">
          <mxGeometry relative="1" as="geometry">
            <mxPoint x="995.2586206896553" y="1474.5" as="targetPoint" />
            <mxPoint x="966" y="1252" as="sourcePoint" />
            <Array as="points" />
          </mxGeometry>
        </mxCell>
        <mxCell id="SrODZw-WOt68CoaygPpk-9" value="No" style="text;html=1;resizable=0;points=[];align=center;verticalAlign=middle;labelBackgroundColor=#ffffff;" parent="SrODZw-WOt68CoaygPpk-8" vertex="1" connectable="0">
          <mxGeometry x="0.2" y="2" relative="1" as="geometry">
            <mxPoint x="-18" y="17" as="offset" />
          </mxGeometry>
        </mxCell>
        <mxCell id="SrODZw-WOt68CoaygPpk-10" value="" style="ellipse;html=1;shape=endState;fillColor=#000000;strokeColor=#ff0000;" parent="1" vertex="1">
          <mxGeometry x="835.5" y="1199" width="30" height="30" as="geometry" />
        </mxCell>
        <mxCell id="SrODZw-WOt68CoaygPpk-11" value="" style="edgeStyle=orthogonalEdgeStyle;rounded=0;orthogonalLoop=1;jettySize=auto;html=1;exitX=0.5;exitY=1;exitDx=0;exitDy=0;" parent="1" source="SrODZw-WOt68CoaygPpk-1" target="SrODZw-WOt68CoaygPpk-5" edge="1">
          <mxGeometry relative="1" as="geometry">
            <mxPoint x="960.5" y="1224" as="targetPoint" />
            <mxPoint x="912.5" y="1224" as="sourcePoint" />
            <Array as="points" />
          </mxGeometry>
        </mxCell>
        <mxCell id="SrODZw-WOt68CoaygPpk-12" value="No" style="text;html=1;resizable=0;points=[];align=center;verticalAlign=middle;labelBackgroundColor=#ffffff;" parent="SrODZw-WOt68CoaygPpk-11" vertex="1" connectable="0">
          <mxGeometry x="0.2" y="2" relative="1" as="geometry">
            <mxPoint x="-22" y="-32" as="offset" />
          </mxGeometry>
        </mxCell>
        <mxCell id="SrODZw-WOt68CoaygPpk-19" value="" style="edgeStyle=orthogonalEdgeStyle;rounded=0;jumpStyle=arc;orthogonalLoop=1;jettySize=auto;html=1;" parent="1" source="SrODZw-WOt68CoaygPpk-13" target="SrODZw-WOt68CoaygPpk-15" edge="1">
          <mxGeometry relative="1" as="geometry" />
        </mxCell>
        <mxCell id="SrODZw-WOt68CoaygPpk-13" value="ExtractionTool" style="points=[[0,0],[0.25,0],[0.5,0],[0.75,0],[1,0],[1,0.25],[1,0.5],[1,0.75],[1,1],[0.75,1],[0.5,1],[0.25,1],[0,1],[0,0.75],[0,0.5],[0,0.25]];outlineConnect=0;fontColor=#232F3E;gradientColor=none;strokeColor=#232F3E;fillColor=#ffffff;dashed=0;verticalLabelPosition=bottom;verticalAlign=top;align=center;html=1;fontSize=12;fontStyle=0;aspect=fixed;shape=mxgraph.aws4.resourceIcon;resIcon=mxgraph.aws4.lambda_function;labelBackgroundColor=default;" parent="1" vertex="1">
          <mxGeometry x="931" y="690.5" width="61" height="60" as="geometry" />
        </mxCell>
        <mxCell id="SrODZw-WOt68CoaygPpk-21" value="" style="edgeStyle=orthogonalEdgeStyle;rounded=0;jumpStyle=arc;orthogonalLoop=1;jettySize=auto;html=1;" parent="1" source="SrODZw-WOt68CoaygPpk-15" edge="1">
          <mxGeometry relative="1" as="geometry">
            <mxPoint x="961.5" y="964" as="targetPoint" />
          </mxGeometry>
        </mxCell>
        <mxCell id="SrODZw-WOt68CoaygPpk-23" value="Yes" style="text;html=1;resizable=0;points=[];align=center;verticalAlign=middle;labelBackgroundColor=#ffffff;" parent="SrODZw-WOt68CoaygPpk-21" vertex="1" connectable="0">
          <mxGeometry x="-0.25" y="1" relative="1" as="geometry">
            <mxPoint x="-14" y="-7" as="offset" />
          </mxGeometry>
        </mxCell>
        <mxCell id="SrODZw-WOt68CoaygPpk-15" value="Does ExtractionRequest exist for Job?" style="rhombus;whiteSpace=wrap;html=1;" parent="1" vertex="1">
          <mxGeometry x="921.5" y="813" width="80" height="80" as="geometry" />
        </mxCell>
        <mxCell id="SrODZw-WOt68CoaygPpk-16" value="" style="edgeStyle=orthogonalEdgeStyle;rounded=0;orthogonalLoop=1;jettySize=auto;html=1;exitX=1;exitY=0.5;exitDx=0;exitDy=0;entryX=0;entryY=0.5;entryDx=0;entryDy=0;" parent="1" source="SrODZw-WOt68CoaygPpk-15" target="SrODZw-WOt68CoaygPpk-18" edge="1">
          <mxGeometry relative="1" as="geometry">
            <mxPoint x="1159.2586206896553" y="1131.5" as="targetPoint" />
            <mxPoint x="1003.5" y="871" as="sourcePoint" />
            <Array as="points" />
          </mxGeometry>
        </mxCell>
        <mxCell id="SrODZw-WOt68CoaygPpk-17" value="No" style="text;html=1;resizable=0;points=[];align=center;verticalAlign=middle;labelBackgroundColor=#ffffff;" parent="SrODZw-WOt68CoaygPpk-16" vertex="1" connectable="0">
          <mxGeometry x="0.2" y="2" relative="1" as="geometry">
            <mxPoint x="-18" y="17" as="offset" />
          </mxGeometry>
        </mxCell>
        <mxCell id="SrODZw-WOt68CoaygPpk-18" value="" style="ellipse;html=1;shape=endState;fillColor=#000000;strokeColor=#ff0000;" parent="1" vertex="1">
          <mxGeometry x="1041" y="838" width="30" height="30" as="geometry" />
        </mxCell>
        <mxCell id="SrODZw-WOt68CoaygPpk-29" value="" style="edgeStyle=orthogonalEdgeStyle;rounded=0;jumpStyle=arc;orthogonalLoop=1;jettySize=auto;html=1;" parent="1" source="SrODZw-WOt68CoaygPpk-24" target="SrODZw-WOt68CoaygPpk-28" edge="1">
          <mxGeometry relative="1" as="geometry" />
        </mxCell>
        <mxCell id="SrODZw-WOt68CoaygPpk-24" value="" style="shadow=0;dashed=0;html=1;strokeColor=none;fillColor=#505050;labelPosition=center;verticalLabelPosition=bottom;verticalAlign=top;outlineConnect=0;align=center;shape=mxgraph.office.concepts.email;" parent="1" vertex="1">
          <mxGeometry x="938" y="1095.5" width="47" height="36" as="geometry" />
        </mxCell>
        <mxCell id="SrODZw-WOt68CoaygPpk-27" value="" style="edgeStyle=orthogonalEdgeStyle;rounded=0;jumpStyle=arc;orthogonalLoop=1;jettySize=auto;html=1;" parent="1" source="SrODZw-WOt68CoaygPpk-25" target="SrODZw-WOt68CoaygPpk-24" edge="1">
          <mxGeometry relative="1" as="geometry">
            <mxPoint x="961.5" y="1154" as="targetPoint" />
          </mxGeometry>
        </mxCell>
        <mxCell id="SrODZw-WOt68CoaygPpk-25" value="Amazon Simple Email Service" style="outlineConnect=0;fontColor=#232F3E;gradientColor=none;strokeColor=#ffffff;fillColor=#232F3E;dashed=0;verticalLabelPosition=middle;verticalAlign=bottom;align=center;html=1;whiteSpace=wrap;fontSize=10;fontStyle=1;spacing=3;shape=mxgraph.aws4.productIcon;prIcon=mxgraph.aws4.simple_email_service;" parent="1" vertex="1">
          <mxGeometry x="921.5" y="941" width="80" height="110" as="geometry" />
        </mxCell>
        <mxCell id="SrODZw-WOt68CoaygPpk-28" value="" style="ellipse;html=1;shape=endState;fillColor=#000000;strokeColor=#ff0000;" parent="1" vertex="1">
          <mxGeometry x="1040" y="1099" width="30" height="30" as="geometry" />
        </mxCell>
        <mxCell id="SrODZw-WOt68CoaygPpk-31" value="" style="ellipse;html=1;shape=endState;fillColor=#000000;strokeColor=#ff0000;" parent="1" vertex="1">
          <mxGeometry x="376" y="414" width="30" height="30" as="geometry" />
        </mxCell>
        <mxCell id="SrODZw-WOt68CoaygPpk-38" value="" style="edgeStyle=orthogonalEdgeStyle;rounded=0;jumpStyle=arc;orthogonalLoop=1;jettySize=auto;html=1;" parent="1" source="SrODZw-WOt68CoaygPpk-32" target="SrODZw-WOt68CoaygPpk-35" edge="1">
          <mxGeometry relative="1" as="geometry">
            <mxPoint x="186.5" y="378" as="targetPoint" />
          </mxGeometry>
        </mxCell>
        <mxCell id="SrODZw-WOt68CoaygPpk-32" value="Amazon API Gateway" style="outlineConnect=0;fontColor=#232F3E;gradientColor=none;strokeColor=#ffffff;fillColor=#232F3E;dashed=0;verticalLabelPosition=middle;verticalAlign=bottom;align=center;html=1;whiteSpace=wrap;fontSize=10;fontStyle=1;spacing=3;shape=mxgraph.aws4.productIcon;prIcon=mxgraph.aws4.api_gateway;" parent="1" vertex="1">
          <mxGeometry x="80.5" y="314" width="80" height="110" as="geometry" />
        </mxCell>
        <mxCell id="SrODZw-WOt68CoaygPpk-33" value="" style="ellipse;html=1;shape=startState;fillColor=#000000;strokeColor=#ff0000;" parent="1" vertex="1">
          <mxGeometry x="8" y="354" width="30" height="30" as="geometry" />
        </mxCell>
        <mxCell id="SrODZw-WOt68CoaygPpk-34" value="" style="edgeStyle=orthogonalEdgeStyle;rounded=0;orthogonalLoop=1;jettySize=auto;html=1;exitX=0.834;exitY=0.485;exitDx=0;exitDy=0;exitPerimeter=0;" parent="1" source="SrODZw-WOt68CoaygPpk-33" target="SrODZw-WOt68CoaygPpk-32" edge="1">
          <mxGeometry relative="1" as="geometry">
            <mxPoint x="7.5" y="387" as="sourcePoint" />
            <mxPoint x="29.5" y="327" as="targetPoint" />
          </mxGeometry>
        </mxCell>
        <mxCell id="SrODZw-WOt68CoaygPpk-36" value="" style="edgeStyle=orthogonalEdgeStyle;rounded=0;jumpStyle=arc;orthogonalLoop=1;jettySize=auto;html=1;" parent="1" source="SrODZw-WOt68CoaygPpk-35" target="No7pV-notClb6I_pl6TP-17" edge="1">
          <mxGeometry relative="1" as="geometry" />
        </mxCell>
        <mxCell id="SrODZw-WOt68CoaygPpk-35" value="AdminTool" style="points=[[0,0],[0.25,0],[0.5,0],[0.75,0],[1,0],[1,0.25],[1,0.5],[1,0.75],[1,1],[0.75,1],[0.5,1],[0.25,1],[0,1],[0,0.75],[0,0.5],[0,0.25]];outlineConnect=0;fontColor=#232F3E;gradientColor=none;strokeColor=#232F3E;fillColor=#ffffff;dashed=0;verticalLabelPosition=bottom;verticalAlign=top;align=center;html=1;fontSize=12;fontStyle=0;aspect=fixed;shape=mxgraph.aws4.resourceIcon;resIcon=mxgraph.aws4.lambda_function;labelBackgroundColor=default;" parent="1" vertex="1">
          <mxGeometry x="243.5" y="339" width="61" height="60" as="geometry" />
        </mxCell>
        <mxCell id="SrODZw-WOt68CoaygPpk-39" value="" style="ellipse;html=1;shape=endState;fillColor=#000000;strokeColor=#ff0000;" parent="1" vertex="1">
          <mxGeometry x="515" y="462" width="30" height="30" as="geometry" />
        </mxCell>
        <mxCell id="SrODZw-WOt68CoaygPpk-47" value="" style="edgeStyle=orthogonalEdgeStyle;rounded=0;jumpStyle=arc;orthogonalLoop=1;jettySize=auto;html=1;" parent="1" source="SrODZw-WOt68CoaygPpk-48" target="SrODZw-WOt68CoaygPpk-13" edge="1">
          <mxGeometry relative="1" as="geometry">
            <mxPoint x="867" y="732.5" as="targetPoint" />
          </mxGeometry>
        </mxCell>
        <mxCell id="SrODZw-WOt68CoaygPpk-42" value="Is at least one Task failed?" style="rhombus;whiteSpace=wrap;html=1;" parent="1" vertex="1">
          <mxGeometry x="709" y="680.5" width="78" height="80" as="geometry" />
        </mxCell>
        <mxCell id="SrODZw-WOt68CoaygPpk-43" value="" style="edgeStyle=orthogonalEdgeStyle;rounded=0;orthogonalLoop=1;jettySize=auto;html=1;exitX=0.5;exitY=0;exitDx=0;exitDy=0;" parent="1" source="7FUQ8ZFE2Msjoggg_Z5E-45" target="SrODZw-WOt68CoaygPpk-42" edge="1">
          <mxGeometry relative="1" as="geometry">
            <mxPoint x="917" y="602.1764705882354" as="targetPoint" />
            <mxPoint x="747.4411764705883" y="1173.9411764705883" as="sourcePoint" />
            <Array as="points" />
          </mxGeometry>
        </mxCell>
        <mxCell id="SrODZw-WOt68CoaygPpk-44" value="Yes" style="text;html=1;resizable=0;points=[];align=center;verticalAlign=middle;labelBackgroundColor=#ffffff;" parent="SrODZw-WOt68CoaygPpk-43" vertex="1" connectable="0">
          <mxGeometry x="0.2" y="2" relative="1" as="geometry">
            <mxPoint x="-16" y="433" as="offset" />
          </mxGeometry>
        </mxCell>
        <mxCell id="SrODZw-WOt68CoaygPpk-48" value="job-failed" style="outlineConnect=0;fontColor=#232F3E;gradientColor=none;strokeColor=#232F3E;fillColor=#ffffff;dashed=0;verticalLabelPosition=bottom;verticalAlign=top;align=center;html=1;fontSize=12;fontStyle=0;aspect=fixed;shape=mxgraph.aws4.resourceIcon;resIcon=mxgraph.aws4.message;" parent="1" vertex="1">
          <mxGeometry x="822" y="690.5" width="60" height="60" as="geometry" />
        </mxCell>
        <mxCell id="SrODZw-WOt68CoaygPpk-49" value="" style="edgeStyle=orthogonalEdgeStyle;rounded=0;jumpStyle=arc;orthogonalLoop=1;jettySize=auto;html=1;" parent="1" source="SrODZw-WOt68CoaygPpk-42" target="SrODZw-WOt68CoaygPpk-48" edge="1">
          <mxGeometry relative="1" as="geometry">
            <mxPoint x="787" y="732.5" as="sourcePoint" />
            <mxPoint x="867" y="732.5" as="targetPoint" />
            <Array as="points">
              <mxPoint x="800.5" y="721" />
              <mxPoint x="800.5" y="721" />
            </Array>
          </mxGeometry>
        </mxCell>
        <mxCell id="SrODZw-WOt68CoaygPpk-50" value="Yes" style="text;html=1;resizable=0;points=[];align=center;verticalAlign=middle;labelBackgroundColor=#ffffff;" parent="SrODZw-WOt68CoaygPpk-49" vertex="1" connectable="0">
          <mxGeometry x="-0.225" y="-1" relative="1" as="geometry">
            <mxPoint x="-4" y="6" as="offset" />
          </mxGeometry>
        </mxCell>
        <mxCell id="SrODZw-WOt68CoaygPpk-51" value="" style="edgeStyle=orthogonalEdgeStyle;rounded=0;jumpStyle=arc;orthogonalLoop=1;jettySize=auto;html=1;" parent="1" source="SrODZw-WOt68CoaygPpk-52" target="SrODZw-WOt68CoaygPpk-55" edge="1">
          <mxGeometry relative="1" as="geometry">
            <mxPoint x="310" y="1652" as="targetPoint" />
          </mxGeometry>
        </mxCell>
        <mxCell id="SrODZw-WOt68CoaygPpk-52" value="Amazon API Gateway" style="outlineConnect=0;fontColor=#232F3E;gradientColor=none;strokeColor=#ffffff;fillColor=#232F3E;dashed=0;verticalLabelPosition=middle;verticalAlign=bottom;align=center;html=1;whiteSpace=wrap;fontSize=10;fontStyle=1;spacing=3;shape=mxgraph.aws4.productIcon;prIcon=mxgraph.aws4.api_gateway;" parent="1" vertex="1">
          <mxGeometry x="204" y="1588" width="80" height="110" as="geometry" />
        </mxCell>
        <mxCell id="SrODZw-WOt68CoaygPpk-53" value="" style="ellipse;html=1;shape=startState;fillColor=#000000;strokeColor=#ff0000;" parent="1" vertex="1">
          <mxGeometry x="131.5" y="1629" width="30" height="30" as="geometry" />
        </mxCell>
        <mxCell id="SrODZw-WOt68CoaygPpk-54" value="" style="edgeStyle=orthogonalEdgeStyle;rounded=0;orthogonalLoop=1;jettySize=auto;html=1;exitX=0.834;exitY=0.485;exitDx=0;exitDy=0;exitPerimeter=0;" parent="1" source="SrODZw-WOt68CoaygPpk-53" target="SrODZw-WOt68CoaygPpk-52" edge="1">
          <mxGeometry relative="1" as="geometry">
            <mxPoint x="131" y="1661" as="sourcePoint" />
            <mxPoint x="153" y="1601" as="targetPoint" />
          </mxGeometry>
        </mxCell>
        <mxCell id="SrODZw-WOt68CoaygPpk-55" value="AdminTool" style="points=[[0,0],[0.25,0],[0.5,0],[0.75,0],[1,0],[1,0.25],[1,0.5],[1,0.75],[1,1],[0.75,1],[0.5,1],[0.25,1],[0,1],[0,0.75],[0,0.5],[0,0.25]];outlineConnect=0;fontColor=#232F3E;gradientColor=none;strokeColor=#232F3E;fillColor=#ffffff;dashed=0;verticalLabelPosition=bottom;verticalAlign=top;align=center;html=1;fontSize=12;fontStyle=0;aspect=fixed;shape=mxgraph.aws4.resourceIcon;resIcon=mxgraph.aws4.lambda_function;" parent="1" vertex="1">
          <mxGeometry x="367" y="1613" width="61" height="60" as="geometry" />
        </mxCell>
        <mxCell id="1HAPl76oqTkE8jAwjPmB-3" value="" style="edgeStyle=orthogonalEdgeStyle;rounded=0;orthogonalLoop=1;jettySize=auto;html=1;" parent="1" source="1HAPl76oqTkE8jAwjPmB-1" target="1HAPl76oqTkE8jAwjPmB-2" edge="1">
          <mxGeometry relative="1" as="geometry" />
        </mxCell>
        <mxCell id="1HAPl76oqTkE8jAwjPmB-1" value="" style="ellipse;html=1;shape=startState;fillColor=#000000;strokeColor=#ff0000;" parent="1" vertex="1">
          <mxGeometry x="1064" y="179" width="30" height="30" as="geometry" />
        </mxCell>
        <mxCell id="1HAPl76oqTkE8jAwjPmB-5" value="" style="edgeStyle=orthogonalEdgeStyle;rounded=0;orthogonalLoop=1;jettySize=auto;html=1;" parent="1" source="1HAPl76oqTkE8jAwjPmB-2" target="1HAPl76oqTkE8jAwjPmB-4" edge="1">
          <mxGeometry relative="1" as="geometry" />
        </mxCell>
        <mxCell id="1HAPl76oqTkE8jAwjPmB-2" value="Amazon API Gateway" style="outlineConnect=0;fontColor=#232F3E;gradientColor=none;strokeColor=#ffffff;fillColor=#232F3E;dashed=0;verticalLabelPosition=middle;verticalAlign=bottom;align=center;html=1;whiteSpace=wrap;fontSize=10;fontStyle=1;spacing=3;shape=mxgraph.aws4.productIcon;prIcon=mxgraph.aws4.api_gateway;" parent="1" vertex="1">
          <mxGeometry x="945" y="139" width="80" height="110" as="geometry" />
        </mxCell>
        <mxCell id="1HAPl76oqTkE8jAwjPmB-7" value="" style="edgeStyle=orthogonalEdgeStyle;rounded=0;orthogonalLoop=1;jettySize=auto;html=1;" parent="1" source="1HAPl76oqTkE8jAwjPmB-4" target="1HAPl76oqTkE8jAwjPmB-6" edge="1">
          <mxGeometry relative="1" as="geometry" />
        </mxCell>
        <mxCell id="1HAPl76oqTkE8jAwjPmB-4" value="AdminTool" style="points=[[0,0],[0.25,0],[0.5,0],[0.75,0],[1,0],[1,0.25],[1,0.5],[1,0.75],[1,1],[0.75,1],[0.5,1],[0.25,1],[0,1],[0,0.75],[0,0.5],[0,0.25]];outlineConnect=0;fontColor=#232F3E;gradientColor=none;strokeColor=#232F3E;fillColor=#ffffff;dashed=0;verticalLabelPosition=bottom;verticalAlign=top;align=center;html=1;fontSize=12;fontStyle=0;aspect=fixed;shape=mxgraph.aws4.resourceIcon;resIcon=mxgraph.aws4.lambda_function;" parent="1" vertex="1">
          <mxGeometry x="833" y="163.5" width="61" height="60" as="geometry" />
        </mxCell>
        <mxCell id="1HAPl76oqTkE8jAwjPmB-8" value="" style="edgeStyle=orthogonalEdgeStyle;rounded=0;orthogonalLoop=1;jettySize=auto;html=1;" parent="1" source="1HAPl76oqTkE8jAwjPmB-6" target="7FUQ8ZFE2Msjoggg_Z5E-5" edge="1">
          <mxGeometry relative="1" as="geometry" />
        </mxCell>
        <mxCell id="1HAPl76oqTkE8jAwjPmB-6" value="extraction-request" style="outlineConnect=0;fontColor=#232F3E;gradientColor=none;strokeColor=#232F3E;fillColor=#ffffff;dashed=0;verticalLabelPosition=bottom;verticalAlign=top;align=center;html=1;fontSize=12;fontStyle=0;aspect=fixed;shape=mxgraph.aws4.resourceIcon;resIcon=mxgraph.aws4.message;" parent="1" vertex="1">
          <mxGeometry x="722.5" y="163.5" width="60" height="60" as="geometry" />
        </mxCell>
        <mxCell id="RJfPdM89LTjFBabGm1Zc-1" value="" style="outlineConnect=0;fontColor=#232F3E;gradientColor=none;strokeColor=#232F3E;fillColor=#ffffff;dashed=0;verticalLabelPosition=bottom;verticalAlign=top;align=center;html=1;fontSize=12;fontStyle=0;aspect=fixed;shape=mxgraph.aws4.resourceIcon;resIcon=mxgraph.aws4.message;" vertex="1" parent="1">
          <mxGeometry x="9" y="20" width="60" height="60" as="geometry" />
        </mxCell>
        <mxCell id="RJfPdM89LTjFBabGm1Zc-2" value="Represents an SNS topic&lt;br&gt;" style="text;html=1;strokeColor=none;fillColor=none;align=center;verticalAlign=middle;whiteSpace=wrap;rounded=0;" vertex="1" parent="1">
          <mxGeometry x="43.5" y="35" width="190" height="30" as="geometry" />
        </mxCell>
      </root>
    </mxGraphModel>
  </diagram>
</mxfile>
